<svg xmlns="http://www.w3.org/2000/svg" xmlns:xlink="http://www.w3.org/1999/xlink" viewBox="0 0 65 61"><defs><style>.cls-1{fill:#fff;}.cls-2{fill:#fcccff;}</style><symbol id="Adicionar_a_Favorito_2" data-name="Adicionar a Favorito 2" viewBox="0 0 64.89 60.97"><path class="cls-1" d="M32,52.34C16.26,40.64,7.85,30.06,7,20.87V17.8c.69-7.32,5.19-10.4,8.08-10.68C15.87,7,16.62,7,17.3,7c4.16,0,5.9,1.28,9.34,5.37L32,18.76l5.36-6.39C40.8,8.28,42.54,7,46.7,7q1,0,2.22.12c2.89.28,7.39,3.36,8.08,10.68v3.07c0,.05,0,.11,0,.17l.37,7.14h5.09a26.4,26.4,0,0,0,1.56-7V17.5C63.12,6.5,55.87.76,49.6.15c-1-.1-2-.15-2.9-.15C39.45,0,36,3.13,32,7.87,28,3.13,24.55,0,17.3,0c-.9,0-1.87.05-2.9.15C8.13.76.88,6.5,0,17.5v3.66C.82,31.69,8.77,44.68,32,61q4-2.79,7.36-5.45V50.79H34C33.37,51.3,32.7,51.82,32,52.34Z"/><polygon class="cls-2" points="53.78 37.65 53.78 26.54 44.25 26.54 44.25 37.65 33.14 37.65 33.14 47.18 44.25 47.18 44.25 58.29 53.78 58.29 53.78 47.18 64.89 47.18 64.89 37.65 53.78 37.65"/></symbol></defs><title>Ativo 1</title><g id="Camada_2" data-name="Camada 2"><g id="Camada_1-2" data-name="Camada 1"><use width="64.89" height="60.97" xlink:href="#Adicionar_a_Favorito_2"/></g></g></svg>